<svg width="100" height="100" viewBox="0 0 100 100" fill="none" xmlns="http://www.w3.org/2000/svg">
<circle cx="50" cy="50" r="50" fill="#0066FF"/>
<path d="M49.733 67.4773C47.1875 67.4773 44.9205 67.0398 42.9318 66.1648C40.9545 65.2784 39.392 64.0625 38.2443 62.517C37.108 60.9602 36.5227 59.1648 36.4886 57.1307H43.9205C43.9659 57.983 44.2443 58.733 44.7557 59.3807C45.2784 60.017 45.9716 60.5114 46.8352 60.8636C47.6989 61.2159 48.6705 61.392 49.75 61.392C50.875 61.392 51.8693 61.1932 52.733 60.7955C53.5966 60.3977 54.2727 59.8466 54.7614 59.142C55.25 58.4375 55.4943 57.625 55.4943 56.7045C55.4943 55.7727 55.233 54.9489 54.7102 54.233C54.1989 53.5057 53.4602 52.9375 52.4943 52.5284C51.5398 52.1193 50.4034 51.9148 49.0852 51.9148H45.8295V46.4943H49.0852C50.1989 46.4943 51.1818 46.3011 52.0341 45.9148C52.8977 45.5284 53.5682 44.9943 54.0455 44.3125C54.5227 43.6193 54.7614 42.8125 54.7614 41.892C54.7614 41.017 54.5511 40.25 54.1307 39.5909C53.7216 38.9205 53.142 38.3977 52.392 38.0227C51.6534 37.6477 50.7898 37.4602 49.8011 37.4602C48.8011 37.4602 47.8864 37.642 47.0568 38.0057C46.2273 38.358 45.5625 38.8636 45.0625 39.5227C44.5625 40.1818 44.2955 40.9545 44.2614 41.8409H37.1875C37.2216 39.8295 37.7955 38.0568 38.9091 36.5227C40.0227 34.9886 41.5227 33.7898 43.4091 32.9261C45.3068 32.0511 47.4489 31.6136 49.8352 31.6136C52.2443 31.6136 54.3523 32.0511 56.1591 32.9261C57.9659 33.8011 59.3693 34.983 60.3693 36.4716C61.3807 37.9489 61.8807 39.608 61.8693 41.4489C61.8807 43.4034 61.2727 45.0341 60.0455 46.3409C58.8295 47.6477 57.2443 48.4773 55.2898 48.8295V49.1023C57.858 49.4318 59.8125 50.3239 61.1534 51.7784C62.5057 53.2216 63.1761 55.0284 63.1648 57.1989C63.1761 59.1875 62.6023 60.9545 61.4432 62.5C60.2955 64.0455 58.7102 65.2614 56.6875 66.1477C54.6648 67.0341 52.3466 67.4773 49.733 67.4773Z" fill="white"/>
</svg>
