<svg width="100" height="100" viewBox="0 0 100 100" fill="none" xmlns="http://www.w3.org/2000/svg">
<circle cx="50" cy="50" r="50" fill="#0066FF"/>
<path d="M36.8295 67V61.6818L49.2557 50.1761C50.3125 49.1534 51.1989 48.233 51.9148 47.4148C52.642 46.5966 53.1932 45.7955 53.5682 45.0114C53.9432 44.2159 54.1307 43.358 54.1307 42.4375C54.1307 41.4148 53.8977 40.5341 53.4318 39.7955C52.9659 39.0455 52.3295 38.4716 51.5227 38.0739C50.7159 37.6648 49.8011 37.4602 48.7784 37.4602C47.7102 37.4602 46.7784 37.6761 45.983 38.108C45.1875 38.5398 44.5739 39.1591 44.142 39.9659C43.7102 40.7727 43.4943 41.733 43.4943 42.8466H36.4886C36.4886 40.5625 37.0057 38.5795 38.0398 36.8977C39.0739 35.2159 40.5227 33.9148 42.3864 32.9943C44.25 32.0739 46.3977 31.6136 48.8295 31.6136C51.3295 31.6136 53.5057 32.0568 55.358 32.9432C57.2216 33.8182 58.6705 35.0341 59.7045 36.5909C60.7386 38.1477 61.2557 39.9318 61.2557 41.9432C61.2557 43.2614 60.9943 44.5625 60.4716 45.8466C59.9602 47.1307 59.0455 48.5568 57.7273 50.125C56.4091 51.6818 54.5511 53.5511 52.1534 55.733L47.0568 60.7273V60.9659H61.7159V67H36.8295Z" fill="white"/>
</svg>
