<svg width="150" height="150" fill="none" xmlns="http://www.w3.org/2000/svg"><circle cx="75" cy="75" r="74.5" fill="#fff" stroke="#bf2233"/><mask id="path-2-inside-1_2_2138" fill="#fff"><path d="M104.783 76.964c-.45-4.925-1.192-5.884-1.472-6.245-.644-.833-1.674-1.378-2.764-1.95a.436.436 0 01-.114-.692c.202-.2.357-.44.455-.703.098-.263.136-.545.112-.824a1.968 1.968 0 00-.662-1.289 2.065 2.065 0 00-1.382-.511h-1.95a2.2 2.2 0 00-.25.016 1.083 1.083 0 00-.177-.057c-1.155-2.38-2.737-5.64-6.015-7.23C85.702 55.122 76.746 55 74.996 55s-10.707.122-15.562 2.475c-3.278 1.59-4.86 4.85-6.015 7.23l-.01.02a.833.833 0 00-.169.04 2.2 2.2 0 00-.25-.015h-1.954a2.064 2.064 0 00-1.382.511 1.965 1.965 0 00-.662 1.29c-.022.278.018.558.117.82.099.262.255.5.457.699a.437.437 0 01.12.374.433.433 0 01-.234.318c-1.09.575-2.125 1.12-2.764 1.95-.28.366-1.02 1.32-1.471 6.245-.25 2.771-.288 5.64-.092 7.488.411 3.84 1.183 6.16 1.215 6.256.119.35.337.66.629.895s.646.384 1.022.43v.024c0 .517.21 1.013.586 1.379.375.366.883.571 1.414.571h7.001c.53 0 1.04-.205 1.414-.571.376-.366.586-.862.586-1.379 1.077 0 1.826-.188 2.62-.388a20.33 20.33 0 013.5-.598c3.814-.355 7.607-.476 9.884-.476 2.23 0 6.19.121 10.011.476 1.188.097 2.364.298 3.515.6.76.191 1.481.367 2.48.385 0 .517.21 1.013.586 1.379.375.365.884.57 1.414.57h7.001c.531 0 1.04-.205 1.415-.57.375-.366.586-.862.586-1.38v-.014a2.025 2.025 0 001.024-.428c.293-.235.512-.546.631-.897.032-.096.804-2.416 1.215-6.255.196-1.85.161-4.713-.091-7.49zM57.035 66.372c1-2.072 2.144-4.417 4.18-5.405 2.943-1.428 9.043-2.072 13.78-2.072 4.74 0 10.839.639 13.782 2.072 2.036.988 3.175 3.335 4.18 5.405l.125.265a.954.954 0 01-.066.949.992.992 0 01-.373.331c-.15.077-.32.116-.49.111-4.155-.11-12.907-.46-17.157-.46s-13.002.36-17.163.469c-.17.004-.34-.034-.49-.112a.992.992 0 01-.374-.33.959.959 0 01-.066-.95c.044-.09.09-.181.132-.273zm1.49 9.705c-2.15.252-4.314.377-6.48.373-1.325 0-2.692-.366-2.946-1.516-.173-.774-.154-1.21-.06-1.647.078-.371.203-.642.828-.737 1.625-.244 2.534.062 5.195.826 1.764.506 3.036 1.18 3.762 1.714.363.263.17.95-.298.987zm27.678 9.994c-1.646.183-4.936.116-11.17.116-6.233 0-9.522.067-11.168-.116-1.697-.184-3.861-1.75-2.384-3.143.984-.92 3.28-1.607 6.336-1.993 3.057-.386 4.35-.585 7.204-.585 2.853 0 4.015.122 7.203.586 3.188.465 5.597 1.16 6.336 1.993 1.348 1.492-.661 2.948-2.358 3.15v-.008zm14.689-11.138c-.25 1.155-1.625 1.516-2.945 1.516a58.43 58.43 0 01-6.606-.373c-.383-.035-.56-.69-.173-.987.714-.548 2-1.208 3.762-1.714 2.66-.764 4.194-1.07 5.512-.815.321.062.491.398.511.61a4.806 4.806 0 01-.061 1.764v-.001z"/></mask><path d="M104.783 76.964c-.45-4.925-1.192-5.884-1.472-6.245-.644-.833-1.674-1.378-2.764-1.95a.436.436 0 01-.114-.692c.202-.2.357-.44.455-.703.098-.263.136-.545.112-.824a1.968 1.968 0 00-.662-1.289 2.065 2.065 0 00-1.382-.511h-1.95a2.2 2.2 0 00-.25.016 1.083 1.083 0 00-.177-.057c-1.155-2.38-2.737-5.64-6.015-7.23C85.702 55.122 76.746 55 74.996 55s-10.707.122-15.562 2.475c-3.278 1.59-4.86 4.85-6.015 7.23l-.01.02a.833.833 0 00-.169.04 2.2 2.2 0 00-.25-.015h-1.954a2.064 2.064 0 00-1.382.511 1.965 1.965 0 00-.662 1.29c-.022.278.018.558.117.82.099.262.255.5.457.699a.437.437 0 01.12.374.433.433 0 01-.234.318c-1.09.575-2.125 1.12-2.764 1.95-.28.366-1.02 1.32-1.471 6.245-.25 2.771-.288 5.64-.092 7.488.411 3.84 1.183 6.16 1.215 6.256.119.35.337.66.629.895s.646.384 1.022.43v.024c0 .517.21 1.013.586 1.379.375.366.883.571 1.414.571h7.001c.53 0 1.04-.205 1.414-.571.376-.366.586-.862.586-1.379 1.077 0 1.826-.188 2.62-.388a20.33 20.33 0 013.5-.598c3.814-.355 7.607-.476 9.884-.476 2.23 0 6.19.121 10.011.476 1.188.097 2.364.298 3.515.6.76.191 1.481.367 2.48.385 0 .517.21 1.013.586 1.379.375.365.884.57 1.414.57h7.001c.531 0 1.04-.205 1.415-.57.375-.366.586-.862.586-1.38v-.014a2.025 2.025 0 001.024-.428c.293-.235.512-.546.631-.897.032-.096.804-2.416 1.215-6.255.196-1.85.161-4.713-.091-7.49zM57.035 66.372c1-2.072 2.144-4.417 4.18-5.405 2.943-1.428 9.043-2.072 13.78-2.072 4.74 0 10.839.639 13.782 2.072 2.036.988 3.175 3.335 4.18 5.405l.125.265a.954.954 0 01-.066.949.992.992 0 01-.373.331c-.15.077-.32.116-.49.111-4.155-.11-12.907-.46-17.157-.46s-13.002.36-17.163.469c-.17.004-.34-.034-.49-.112a.992.992 0 01-.374-.33.959.959 0 01-.066-.95c.044-.09.09-.181.132-.273zm1.49 9.705c-2.15.252-4.314.377-6.48.373-1.325 0-2.692-.366-2.946-1.516-.173-.774-.154-1.21-.06-1.647.078-.371.203-.642.828-.737 1.625-.244 2.534.062 5.195.826 1.764.506 3.036 1.18 3.762 1.714.363.263.17.95-.298.987zm27.678 9.994c-1.646.183-4.936.116-11.17.116-6.233 0-9.522.067-11.168-.116-1.697-.184-3.861-1.75-2.384-3.143.984-.92 3.28-1.607 6.336-1.993 3.057-.386 4.35-.585 7.204-.585 2.853 0 4.015.122 7.203.586 3.188.465 5.597 1.16 6.336 1.993 1.348 1.492-.661 2.948-2.358 3.15v-.008zm14.689-11.138c-.25 1.155-1.625 1.516-2.945 1.516a58.43 58.43 0 01-6.606-.373c-.383-.035-.56-.69-.173-.987.714-.548 2-1.208 3.762-1.714 2.66-.764 4.194-1.07 5.512-.815.321.062.491.398.511.61a4.806 4.806 0 01-.061 1.764v-.001z" fill="#bf2233"/><path d="M104.783 76.964l.996-.09-.996.09zm-1.472-6.245l-.791.612.001.002.79-.614zm-2.764-1.95l.464-.885-.006-.003-.458.888zm-.114-.692l-.703-.711-.008.008.711.703zM101 66.55l.996-.087-.001-.007-.995.094zm-2.044-1.8v1h.009l-.01-1zm-1.95 0v-1H97l.005 1zm-.25.016l-.39.92.245.105.265-.032-.12-.993zm-.177-.057l-.9.436.209.43.465.108.226-.974zm-6.015-7.23l.437-.9-.437.9zm-31.13-.004l-.437-.9.437.9zm-6.015 7.23l.89.456.005-.01.005-.01-.9-.436zm-.01.02l.136.99.516-.07.238-.464-.89-.457zm-.169.04l-.12.994.235.028.224-.08-.339-.941zm-.25-.015l.006-1h-.006v1zm-1.954 0l-.009 1h.01v-1zm-2.044 1.8l-.995-.094-.001.007v.008l.996.08zm.574 1.52l.711-.703-.005-.006-.006-.005-.7.714zm-.114.692l-.458-.889-.009.005.467.884zm-2.764 1.95l-.793-.61v.002l.793.608zm-1.471 6.245l-.996-.091v.001l.996.09zm-.092 7.488l-.994.106.994-.106zm1.215 6.256l-.947.32.947-.32zm1.65 1.325h1v-.885l-.878-.108-.121.993zm0 .024h-1 1zm11.002 0v-1h-1v1h1zm2.62-.388l.244.97.01-.002-.255-.968zm3.5-.598l.082.997.01-.001-.092-.996zm19.895 0l-.092.996h.01l.082-.996zm3.515.6l-.255.968.012.003.243-.97zm2.48.385h1v-.982l-.982-.018-.018 1zm11.002-.015l-.12-.993-.88.106v.887h1zm1.655-1.325l.947.32-.947-.32zm1.215-6.255l.994.106-.994-.106zm-47.84-18.082l-.9-.435-.006.012-.005.012.912.411zm4.181-5.405l.437.9-.437-.9zm27.562 0l-.438.9h.001l.437-.9zm4.18 5.405l.904-.427-.004-.01-.9.437zm.125.265l-.904.427.005.01.9-.437zm-.93 1.391l-.026 1 .026-1zm-34.319.009l.026 1-.026-1zm-.93-1.392l.9.437-.9-.437zm1.623 9.432l-.078-.997-.02.002-.019.002.117.993zm-6.481.373l.002-1h-.002v1zm-2.946-1.516l.977-.215v-.004l-.977.219zm-.06-1.647l.977.21v-.002l-.978-.208zm.828-.737l-.148-.989h-.002l.15.989zm5.195.826l-.276.962.276-.962zm3.762 1.714l-.593.805.006.005.587-.81zm27.379 10.98h1v-1.116l-1.11.123.11.994zm-22.338 0l.11-.993h-.002l-.108.994zm-2.384-3.142l-.682-.731-.004.003.686.728zm27.08 0l-.749.665.006.006.742-.67zm-2.359 3.15h-1v1.126l1.118-.133-.117-.993zm14.69-11.145h1l-1.977-.212.977.212zm-2.945 1.516v-1 1zm-6.606-.373l.113-.994-.01-.001h-.011l-.092.995zm-.173-.987l-.608-.794.608.794zm3.762-1.714l.276.961-.276-.96zm5.512-.815l.19-.982-.19.982zm.511.61l-.995.094.002.027.005.027.988-.149zm-.061 1.764h-1l1.976.216-.976-.216zm4.887 1.94c-.457-4.994-1.223-6.182-1.678-6.768l-1.58 1.227c.106.136.822.866 1.266 5.722l1.992-.182zm-1.676-6.766c-.803-1.04-2.052-1.679-3.092-2.224l-.928 1.771c1.14.598 1.952 1.048 2.437 1.676l1.583-1.223zm-3.098-2.227a.544.544 0 01.192.164l-1.611 1.184c.133.181.306.328.503.43l.916-1.778zm.192.164c.052.07.088.154.103.244l-1.974.324c.037.224.127.435.26.616l1.611-1.184zm.103.244a.565.565 0 01-.02.267l-1.904-.612c-.07.216-.087.445-.05.67l1.974-.325zm-.02.267a.574.574 0 01-.135.224l-1.423-1.406c-.157.16-.276.354-.346.57l1.904.612zm-.144.232c.305-.3.541-.664.69-1.066l-1.875-.696a.936.936 0 01-.22.34l1.405 1.422zm.69-1.066c.149-.402.207-.831.17-1.258l-1.993.173a.889.889 0 01-.052.39l1.875.695zm.169-1.266a2.966 2.966 0 00-.996-1.945l-1.322 1.5c.19.169.305.395.327.634l1.991-.19zm-.996-1.945a3.066 3.066 0 00-2.052-.761l.018 2c.266-.002.52.093.712.262l1.322-1.501zm-2.043-.761h-1.95v2h1.95v-2zm-1.956 0c-.122 0-.244.008-.365.023l.24 1.986c.046-.006.09-.009.136-.009l-.011-2zm.145.095a2.08 2.08 0 00-.34-.11l-.453 1.948c.005 0 .01.002.014.004l.779-1.842zm.334.427c-1.134-2.336-2.844-5.93-6.478-7.693l-.873 1.8c2.921 1.417 4.375 4.341 5.551 6.766l1.8-.873zM91 56.579c-2.597-1.258-6.198-1.89-9.282-2.218A67.33 67.33 0 0074.996 54v2c.857 0 3.495.03 6.512.35 3.047.323 6.354.93 8.62 2.029l.873-1.8zM74.996 54c-.894 0-3.609.03-6.722.36-3.083.327-6.684.959-9.277 2.215l.873 1.8c2.262-1.096 5.568-1.703 8.615-2.026a65.483 65.483 0 016.51-.349v-2zm-15.999 2.576c-3.635 1.763-5.344 5.357-6.478 7.692l1.8.873c1.176-2.424 2.63-5.349 5.551-6.766l-.873-1.8zm-6.468 7.673l-.01.019 1.78.913.01-.02-1.78-.912zm.744-.515a1.83 1.83 0 00-.372.09l.678 1.883a.165.165 0 01-.034.008l-.272-1.981zm.088.04a3.179 3.179 0 00-.365-.024l-.012 2c.046 0 .09.003.136.009l.24-1.986zm-.37-.024h-1.955v2h1.954v-2zm-1.946 0a3.065 3.065 0 00-2.052.76l1.322 1.502c.191-.169.445-.264.712-.262l.018-2zm-2.052.76a2.966 2.966 0 00-.997 1.946l1.992.189a.965.965 0 01.327-.633l-1.322-1.501zm-.998 1.96c-.034.427.027.855.178 1.254l1.871-.706a.896.896 0 01-.055-.389l-1.994-.158zm.178 1.254c.151.4.388.761.693 1.06l1.4-1.428a.936.936 0 01-.222-.338l-1.87.706zm.681 1.049a.563.563 0 01-.135-.224l1.904-.612a1.437 1.437 0 00-.346-.57l-1.422 1.406zm-.135-.224a.571.571 0 01-.02-.268l1.974.325c.037-.224.02-.453-.05-.67l-1.904.613zm-.02-.268a.566.566 0 01.103-.243l1.611 1.184c.134-.181.223-.392.26-.616l-1.974-.325zm.103-.243a.552.552 0 01.192-.165l.916 1.778c.198-.102.37-.248.503-.43l-1.611-1.183zm.183-.16c-1.034.546-2.291 1.187-3.09 2.224l1.585 1.22c.48-.623 1.293-1.07 2.439-1.675l-.934-1.77zm-3.09 2.226c-.45.587-1.217 1.765-1.674 6.762l1.991.182c.445-4.853 1.16-5.583 1.27-5.728l-1.588-1.216zm-1.675 6.763c-.253 2.807-.295 5.747-.09 7.684l1.99-.212c-.187-1.758-.154-4.556.092-7.292l-1.992-.18zm-.09 7.684c.421 3.927 1.212 6.32 1.263 6.47l1.895-.64c-.014-.042-.766-2.29-1.168-6.043l-1.99.214zm1.263 6.47c.18.534.51 1.003.95 1.355l1.252-1.56a.95.95 0 01-.307-.435l-1.895.64zm.95 1.355c.438.352.968.574 1.526.642l.243-1.985a1.027 1.027 0 01-.517-.217l-1.252 1.56zm.648-.35v.024h2v-.024h-2zm0 .024c0 .79.322 1.544.888 2.095l1.396-1.432a.926.926 0 01-.284-.663h-2zm.888 2.095c.564.55 1.324.855 2.112.855v-2c-.273 0-.53-.106-.716-.287l-1.396 1.432zM49.99 95h7.001v-2H49.99v2zm7.001 0c.788 0 1.548-.305 2.112-.855l-1.396-1.432a1.026 1.026 0 01-.716.287v2zm2.112-.855a2.925 2.925 0 00.888-2.095h-2a.925.925 0 01-.284.663l1.396 1.432zm-.112-1.095c1.21 0 2.06-.216 2.864-.418l-.489-1.94c-.785.198-1.43.358-2.375.358v2zm2.873-.42a19.324 19.324 0 013.329-.57l-.164-1.993c-1.24.102-2.47.312-3.673.628l.508 1.935zm3.34-.57c3.78-.352 7.542-.472 9.79-.472v-2c-2.303 0-6.127.123-9.976.48l.185 1.992zm9.79-.472c2.205 0 6.134.12 9.92.472l.185-1.992c-3.856-.358-7.848-.48-10.104-.48v2zm9.93.473c1.13.092 2.248.283 3.342.571l.509-1.934a21.363 21.363 0 00-3.687-.63l-.163 1.993zm3.354.574c.77.193 1.585.393 2.705.414l.036-2c-.878-.016-1.506-.167-2.256-.354l-.485 1.94zm1.723-.586c0 .79.322 1.543.888 2.095l1.396-1.432a.925.925 0 01-.284-.663h-2zm.888 2.095c.564.55 1.325.855 2.112.855v-2c-.273 0-.53-.106-.716-.287l-1.396 1.432zm2.112.855h7.001v-2h-7v2zm7.001 0a3.03 3.03 0 002.113-.855l-1.396-1.432a1.028 1.028 0 01-.717.287v2zm2.113-.855a2.927 2.927 0 00.888-2.095h-2a.925.925 0 01-.284.663l1.396 1.432zm.888-2.095v-.015h-2v.015h2zm-.881.978a3.026 3.026 0 001.53-.64l-1.249-1.562a1.03 1.03 0 01-.52.216l.239 1.986zm1.53-.64c.441-.353.772-.823.953-1.357l-1.894-.641a.958.958 0 01-.308.436l1.249 1.562zm.953-1.358c.051-.15.842-2.543 1.262-6.469l-1.988-.213c-.402 3.752-1.154 6-1.169 6.043l1.895.64zm1.262-6.47c.206-1.938.166-4.873-.089-7.685l-1.992.18c.249 2.74.279 5.534.093 7.294l1.988.211zM57.935 66.807c.505-1.047 1.01-2.082 1.625-2.977.613-.892 1.288-1.573 2.092-1.963l-.873-1.8c-1.233.599-2.149 1.584-2.867 2.63-.716 1.042-1.283 2.215-1.778 3.24l1.801.87zm3.717-4.94c1.323-.643 3.454-1.145 5.916-1.48 2.435-.333 5.1-.492 7.428-.492v-2c-2.41 0-5.164.163-7.7.51-2.508.342-4.898.876-6.518 1.662l.874 1.8zm13.344-1.972c2.329 0 4.993.157 7.428.49 2.462.335 4.592.837 5.915 1.481l.876-1.798c-1.62-.79-4.012-1.323-6.52-1.665a59.003 59.003 0 00-7.7-.508v2zm13.344 1.972c.803.39 1.477 1.07 2.09 1.963.614.896 1.119 1.931 1.628 2.979l1.799-.873c-.497-1.023-1.064-2.197-1.779-3.238-.718-1.046-1.631-2.032-2.865-2.63l-.873 1.799zm3.713 4.932l.125.265 1.808-.855-.125-.264-1.808.855zm.13.274a.046.046 0 01-.005-.023l1.996.139a1.953 1.953 0 00-.192-.99l-1.8.874zm-.005-.023a.042.042 0 01.007-.02l1.663 1.112a1.97 1.97 0 00.326-.953l-1.996-.139zm.007-.02c.002-.004.004-.004.003-.003l.911 1.78a1.99 1.99 0 00.749-.665l-1.663-1.112zm.003-.003a.022.022 0 01-.01.002l-.051 2c.337.008.671-.068.972-.222l-.911-1.78zm-.01.002c-4.122-.11-12.915-.461-17.182-.461v2c4.234 0 12.943.35 17.13.46l.052-2zm-17.182-.461c-4.267 0-13.062.36-17.189.47l.053 1.999c4.194-.111 12.901-.47 17.136-.47v-2zm-17.188.47a.021.021 0 01-.01-.003l-.912 1.78c.301.155.636.23.973.222l-.051-2zm-.01-.003c-.002 0 0 0 .003.004l-1.663 1.111c.189.283.447.511.748.666l.912-1.78zm.003.004a.04.04 0 01.006.02l-1.995.139c.024.341.137.669.326.952l1.662-1.11zm.006.02a.048.048 0 01-.004.023l-1.8-.874a1.964 1.964 0 00-.191.99l1.995-.14zm-.004.023c.034-.07.094-.19.143-.298l-1.823-.823c-.034.074-.066.137-.12.248l1.8.873zm.606 8.002a53.76 53.76 0 01-6.362.366l-.004 2c2.206.004 4.41-.123 6.6-.38l-.234-1.986zm-6.364.366c-.59 0-1.11-.084-1.474-.243-.344-.15-.457-.317-.495-.488l-1.953.43c.216.98.913 1.57 1.648 1.89.713.312 1.538.411 2.274.411v-2zm-1.97-.735c-.147-.654-.118-.942-.059-1.218l-1.956-.42c-.128.6-.137 1.182.064 2.076l1.951-.438zm-.058-1.22l.016-.07.005-.016a.375.375 0 01-.149.159l.028-.01a.905.905 0 01.1-.02l-.3-1.977c-.432.066-.865.218-1.195.567-.32.337-.416.733-.462.952l1.957.415zm-.002.044c1.368-.205 2.052.017 4.77.799l.553-1.923c-2.602-.747-3.736-1.136-5.62-.854l.297 1.978zm4.771.799c1.669.478 2.83 1.105 3.445 1.557l1.185-1.61c-.835-.615-2.22-1.337-4.079-1.87l-.55 1.923zm3.451 1.562a.487.487 0 01-.21-.513.466.466 0 01.421-.307l.156 1.994c.76-.06 1.2-.637 1.342-1.124.14-.478.092-1.216-.536-1.67l-1.173 1.62zm27.855 9.177c-1.572.175-4.76.11-11.059.11v2c6.169 0 9.561.069 11.28-.122l-.22-1.988zm-11.059.11c-6.298 0-9.485.065-11.057-.11l-.221 1.988c1.718.19 5.11.122 11.278.122v-2zm-11.06-.11c-.646-.07-1.385-.419-1.771-.819-.187-.193-.21-.312-.212-.34 0-.008-.001-.023.013-.054a.698.698 0 01.165-.209L60.795 82.2c-.536.506-.845 1.14-.801 1.843.041.665.387 1.21.77 1.605.75.777 1.942 1.303 2.994 1.417l.215-1.988zm-1.81-1.418c.327-.306.975-.652 2.006-.972 1.006-.313 2.283-.571 3.774-.76l-.251-1.984c-1.566.198-2.965.476-4.116.834-1.127.35-2.12.806-2.777 1.42l1.365 1.462zm5.78-1.732c3.062-.387 4.297-.577 7.078-.577v-2c-2.925 0-4.278.207-7.33.593l.252 1.984zm7.078-.577c2.79 0 3.902.116 7.06.576l.288-1.98c-3.219-.468-4.432-.596-7.348-.596v2zm7.06.576c1.564.228 2.91.509 3.936.824.513.158.928.319 1.243.476.327.163.488.294.552.367l1.496-1.328c-.305-.344-.722-.612-1.154-.828-.444-.222-.97-.42-1.55-.598-1.159-.357-2.613-.656-4.235-.892l-.289 1.979zm5.737 1.673c.193.213.186.325.184.35-.004.051-.036.172-.205.35-.356.376-1.05.708-1.712.786l.235 1.986c1.035-.123 2.193-.62 2.929-1.395.377-.398.7-.933.747-1.582.05-.673-.212-1.302-.694-1.835l-1.484 1.34zm-.615 2.48v-.008h-2v.007h2zM99.915 74.72c-.037.17-.148.336-.493.486-.365.159-.887.242-1.475.242v2c.732 0 1.558-.097 2.272-.408.736-.32 1.437-.912 1.651-1.897l-1.955-.423zm-1.969.728c-2.17 0-4.337-.122-6.492-.367l-.226 1.988c2.23.253 4.474.38 6.719.379v-2zm-6.513-.369a.628.628 0 01.406.197.422.422 0 01.105.195.42.42 0 01-.167.41l-1.218-1.587c-.565.434-.677 1.1-.571 1.594.095.447.47 1.11 1.26 1.183l.185-1.992zm.344.802c.587-.45 1.75-1.064 3.429-1.546l-.552-1.922c-1.844.53-3.254 1.237-4.094 1.881l1.217 1.587zm3.43-1.546c2.693-.773 3.999-.997 5.045-.794l.38-1.964c-1.589-.307-3.35.081-5.978.836l.552 1.922zm5.045-.794a.407.407 0 01-.253-.149.176.176 0 01-.023-.042.327.327 0 01-.018-.087l1.991-.19a1.781 1.781 0 00-.327-.85 1.596 1.596 0 00-.99-.646l-.38 1.963zm-.287-.224c.069.465.053.94-.05 1.4l1.953.432c.156-.7.181-1.42.074-2.13l-1.977.298zm1.927 1.616v-.001h-2 2z" fill="#bf2233" mask="url(#path-2-inside-1_2_2138)"/></svg>