<svg width="150" height="150" fill="none" xmlns="http://www.w3.org/2000/svg"><circle cx="75" cy="75" r="74.5" fill="#fff" stroke="#06F"/><path d="M82.746 61.63h0l.011.006a1.738 1.738 0 01.655 2.418h0l-.005.008L70.32 86.706v.002a1.81 1.81 0 01-1.551.888h-.02c-.3.014-.598-.063-.854-.22l-.007-.004-.007-.004a1.772 1.772 0 01-.657-2.429h0l13.09-22.65.002-.002a1.773 1.773 0 012.431-.658zM72.45 68.726v.04a7.413 7.413 0 01-7.053 7.725 7.45 7.45 0 01-7.09-7.726v-.035a7.45 7.45 0 017.09-7.692 7.414 7.414 0 017.054 7.69zm-7.11 4.18l.057.007.057-.006a3.874 3.874 0 003.415-4.159 3.834 3.834 0 00-3.42-4.165l-.052-.005-.052.005a3.874 3.874 0 00-3.457 4.165 3.907 3.907 0 003.451 4.159zm12.876 7.331l.001-.02v-.02a7.413 7.413 0 017.053-7.69 7.458 7.458 0 017.09 7.692v.036a7.45 7.45 0 01-7.09 7.726 7.421 7.421 0 01-7.054-7.724zm6.997 4.14l.057.007.058-.006a3.91 3.91 0 003.45-4.16 3.87 3.87 0 00-3.456-4.164l-.055-.006-.054.007a3.874 3.874 0 00-3.415 4.161 3.87 3.87 0 003.415 4.162z" fill="#06F" stroke="#06F"/><path d="M75.318 47.514h.031a27.962 27.962 0 0119.998 7.542 27.931 27.931 0 018.819 19.444 27.931 27.931 0 01-8.819 19.444 27.962 27.962 0 01-19.998 7.542h-.031a27.962 27.962 0 01-19.999-7.543A27.932 27.932 0 0146.5 74.5a27.932 27.932 0 018.82-19.444 27.962 27.962 0 0119.998-7.542zM50.084 74.48l-.001.02v.02a24.39 24.39 0 007.805 16.906 24.414 24.414 0 0017.445 6.48 24.413 24.413 0 0017.445-6.48 24.389 24.389 0 007.805-16.906l.001-.02-.001-.02a24.389 24.389 0 00-7.805-16.906 24.413 24.413 0 00-17.445-6.48 24.414 24.414 0 00-17.445 6.48 24.39 24.39 0 00-7.804 16.906z" fill="#06F" stroke="#06F"/></svg>