<svg width="100" height="100" fill="none" xmlns="http://www.w3.org/2000/svg"><circle cx="50" cy="50" r="50" fill="#06F"/><path d="M49.733 67.477c-2.545 0-4.813-.437-6.801-1.312-1.977-.887-3.54-2.103-4.688-3.648-1.136-1.557-1.721-3.352-1.755-5.386h7.431c.046.852.324 1.602.836 2.25.522.636 1.216 1.13 2.08 1.483.863.352 1.834.528 2.914.528 1.125 0 2.12-.199 2.983-.597.864-.397 1.54-.948 2.028-1.653.489-.705.733-1.517.733-2.438 0-.931-.261-1.755-.784-2.471-.511-.727-1.25-1.295-2.216-1.705-.954-.409-2.09-.613-3.409-.613H45.83v-5.42h3.255c1.114 0 2.097-.194 2.95-.58.863-.387 1.533-.92 2.01-1.602.478-.694.716-1.5.716-2.421 0-.875-.21-1.642-.63-2.301-.41-.67-.989-1.193-1.739-1.568-.739-.375-1.602-.563-2.59-.563-1 0-1.916.182-2.745.546-.83.352-1.495.858-1.995 1.517-.5.659-.767 1.431-.8 2.318h-7.075c.035-2.011.608-3.784 1.722-5.318 1.114-1.534 2.614-2.733 4.5-3.597 1.898-.875 4.04-1.312 6.426-1.312 2.41 0 4.517.437 6.324 1.312 1.807.875 3.21 2.057 4.21 3.546 1.012 1.477 1.512 3.136 1.5 4.977.012 1.954-.596 3.585-1.824 4.892-1.215 1.307-2.8 2.136-4.755 2.489v.272c2.568.33 4.523 1.222 5.863 2.676 1.353 1.444 2.023 3.25 2.012 5.42.011 1.99-.563 3.757-1.722 5.302-1.148 1.546-2.733 2.761-4.755 3.648-2.023.886-4.341 1.33-6.955 1.33z" fill="#fff"/></svg>