<svg width="100" height="100" fill="none" xmlns="http://www.w3.org/2000/svg"><circle cx="50" cy="50" r="50" fill="#06F"/><path d="M36.83 67v-5.318l12.426-11.506a46.99 46.99 0 002.659-2.761c.727-.818 1.278-1.62 1.653-2.404a5.96 5.96 0 00.563-2.574c0-1.022-.233-1.903-.7-2.642a4.588 4.588 0 00-1.908-1.721c-.807-.41-1.722-.614-2.745-.614-1.068 0-2 .216-2.795.648a4.464 4.464 0 00-1.841 1.858c-.432.807-.648 1.767-.648 2.88H36.49c0-2.283.517-4.266 1.55-5.948 1.035-1.682 2.484-2.983 4.347-3.904 1.864-.92 4.012-1.38 6.444-1.38 2.5 0 4.676.443 6.528 1.33 1.864.874 3.313 2.09 4.347 3.647 1.034 1.557 1.55 3.34 1.55 5.352 0 1.318-.26 2.62-.783 3.904-.512 1.284-1.427 2.71-2.745 4.278-1.318 1.557-3.176 3.426-5.574 5.608l-5.096 4.994v.239h14.659V67H36.83z" fill="#fff"/></svg>